<?xml version="1.0" encoding="UTF-8" standalone="no"?>
<!DOCTYPE svg PUBLIC "-//W3C//DTD SVG 1.1//EN" "http://www.w3.org/Graphics/SVG/1.1/DTD/svg11.dtd">
<svg version="1.1" xmlns="http://www.w3.org/2000/svg" xmlns:xlink="http://www.w3.org/1999/xlink" preserveAspectRatio="xMidYMid meet" viewBox="0 0 640 640" width="640" height="640"><defs><path d="M38.85 845.35C48.71 1043.29 54.44 1063.59 54.44 1063.59C106.66 1063.2 524.42 1060.08 576.64 1059.69C576.64 1059.69 662.38 504.36 321.39 463.44C158.88 443.94 270.72 453.7 270.72 453.7C183.04 508.26 28.65 640.7 38.85 845.35Z" id="alNIBwahL"></path><path d="M417.31 463.25C417.31 463.25 449.56 553.94 409.84 551.91C293.62 559.7 234.37 465.2 234.37 465.2C234.37 465.2 286.03 508.06 417.31 463.25Z" id="d2rNUMLsMD"></path><path d="M357.02 529.11L348.32 575.54L398.44 547.9L357.02 529.11Z" id="bKvBXyCQd"></path><path d="M295.2 525.02L303.9 571.45L253.79 543.81L295.2 525.02Z" id="i5xaxtfJZ"></path><path d="M71.7 592.82C-15.98 729.22 8.15 1078.2 8.15 1078.2C8.15 1078.2 65.52 1073.98 125.06 1076.25C153.51 1076.38 295.75 1077.03 551.79 1078.2C590.37 1077.03 611.8 1076.38 616.09 1076.25C616.09 1076.25 683.66 757.21 584.29 601.33C550.7 548.65 417.34 487.8 417.34 487.8C417.34 487.8 407.62 557.25 333.55 557.95C263.26 558.61 240.02 491.7 240.02 491.7C240.02 491.7 101.84 545.95 71.7 592.82Z" id="b149ZE0kdy"></path><path d="M185.55 510.11C185.55 510.11 213.84 541.18 253.75 562.25C288.83 580.76 330.36 589.36 370.26 578.48C432.76 561.43 454.65 500.7 454.65 500.7C453.56 499.21 444.83 487.25 443.74 485.75C443.74 485.75 388.75 539.81 360.92 548.11C331.4 556.91 318.06 554.93 297.6 548.11C280.73 542.49 216.73 489.65 216.73 489.65C210.5 493.74 191.79 506.02 185.55 510.11Z" id="b7ecLxfVWi"></path><path d="M431 452.72C428.2 457.24 405.82 493.38 403.02 497.9C395.01 510.84 355.19 530.47 355.19 530.47C355.19 530.47 390.9 544.58 395.25 581.13C452.08 561.98 464.31 489.55 464.31 489.55C448.72 472.02 437.66 460.09 431 452.72Z" id="b1h4hHkjGd"></path><path d="M215.76 439.96C218.96 445.61 244.61 490.75 247.82 496.4C255.68 510.23 295.65 530.97 295.65 530.97C295.65 530.97 258.96 535.6 254.61 574.41C197.78 554.08 176.79 493.74 176.79 493.74C192.37 475.13 207.96 450.72 215.76 439.96Z" id="d1fsaPAOOW"></path><path d="M434.03 454.77C434.03 454.77 434.48 500.08 411.58 517.98C409.25 519.81 397.57 528.93 376.56 545.35C365.16 536.47 358.83 531.54 357.56 530.55C357.56 530.55 392 510.57 401.65 496.11C411.29 481.64 414.05 468.55 414.05 468.55C418.05 465.8 430.03 457.53 434.03 454.77Z" id="aCxlCDsv8"></path><path d="M190.83 126.11C158.62 163.7 159.51 207.77 146.85 231.25C130.87 228.32 108.55 229.46 102.69 252.92C94.81 284.42 102.57 282.04 112.41 308.45C112.41 308.45 133.15 329.55 144.45 330.16C156.84 392.15 177.7 471.95 278.8 484.08C417.98 500.78 484.79 445.11 490.35 328.2C491.25 309.26 492.74 318.32 494.39 304.09C497.39 305.3 500.71 306.01 504.38 306.01C531.94 306.01 531.94 286.32 539.81 246.96C544.87 221.66 505.1 224.65 487.15 227.23C485.57 210.29 472.93 145.27 453.02 127.57C420.14 98.34 364.73 84.4 297.46 84.84C262.22 85.08 213.8 99.32 190.83 126.11Z" id="gcqP92jX"></path><path d="M226.69 287.6C216.79 287.6 208.78 295.62 208.78 305.51C208.78 315.41 216.79 323.43 226.69 323.43C236.58 323.43 244.6 315.41 244.6 305.51C244.6 295.62 236.58 287.6 226.69 287.6Z" id="bgnV6TynA"></path><path d="M405.33 286.24C395.44 286.24 387.42 294.26 387.42 304.15C387.42 314.04 395.44 322.06 405.33 322.06C415.23 322.06 423.25 314.04 423.25 304.15C423.25 294.26 415.23 286.24 405.33 286.24Z" id="a2fYSq143n"></path><path d="M99.82 678.62L68.64 1076.12L136.84 1076.12L129.05 770.2L99.82 678.62Z" id="ac8zqZSTv"></path><path d="M124.47 1077.12C126.26 1077.31 140.6 1078.85 142.39 1079.04C142.39 1079.04 157.37 741.2 96.9 664.01C148.09 857.74 118.95 994.5 124.47 1077.12Z" id="ahA1g6uY"></path><path d="M205.1 455.45C205.1 455.45 216.8 503.63 240.35 520.66C242.42 522.16 252.8 529.66 271.47 543.16C288.13 536.03 297.39 532.07 299.24 531.28C299.24 531.28 255.39 502.99 245.74 488.52C236.1 474.05 237.48 474.05 237.48 474.05C231 470.33 211.57 459.17 205.1 455.45Z" id="abB4DwRc"></path><path d="M538.24 676.67L569.41 1074.17L501.21 1074.17L509.01 768.25L538.24 676.67Z" id="a1RSl6zKfu"></path><path d="M510.07 1071.33C508.28 1071.52 493.94 1073.01 492.15 1073.19C492.15 1073.19 477.17 746.45 537.64 671.8C486.45 859.16 515.58 991.43 510.07 1071.33Z" id="c1rFUM1aVb"></path><path d="M137.82 188.57C137.82 188.57 141.14 128.31 158.68 99.08C158.68 99.08 225.5 42.43 254.73 38.54C254.73 38.54 369.69 34.64 396.97 46.33C396.97 46.33 461.27 79.46 472.96 98.94C472.96 98.94 490.4 246.95 484.89 298.27C484.58 301.17 476.89 239.56 459.15 216.74C441.6 194.15 466.78 158.61 457.04 155.69C437.56 149.84 389.51 177.36 309.63 169.57C229.74 161.77 177.46 146.42 173.56 158.11C169.66 169.8 186.96 202.04 174.51 210.78C144.1 232.12 143.43 331.33 143.43 331.33C143.43 331.33 139.77 233.39 137.82 188.57Z" id="a1JvCeQBZx"></path><path d="M275.04 280.23C275.04 280.23 258.92 263.51 235.74 263.1C212.55 262.69 188.07 281.59 188.07 281.59C172.12 280.55 208.12 237.07 235.46 241.37C262.8 245.67 268.58 246.33 268.58 246.33C268.58 246.33 274.4 276.84 275.04 280.23Z" id="b2sXtFye2D"></path><path d="M361.21 276.82C361.21 276.82 376.82 259.63 399.98 258.53C423.14 257.43 448.18 275.58 448.18 275.58C464.09 274.06 426.81 231.68 399.61 236.79C372.42 241.91 366.66 242.74 366.66 242.74C366.66 242.74 361.75 273.41 361.21 276.82Z" id="d4kwl9oB8"></path><path d="M280.48 384.54C310.74 382.13 312.73 392.66 322.15 393.42C331.57 394.18 342.11 389.7 352.92 391.52C363.72 393.33 384.52 395.91 384.52 395.91C346.61 416.75 295.88 411.2 251.92 386.18C251.92 386.18 250.23 386.96 280.48 384.54Z" id="d5Gc9MLOnV"></path><path d="M382.44 394.14C382.44 394.14 388.36 397.63 381.3 375.71C387.88 378.34 400.38 398.48 400.38 398.48C399.24 398.08 390.15 394.87 389.02 394.47C389.02 394.47 326.35 460.02 249.49 385.79C249.49 385.79 319.17 422.58 382.44 394.14Z" id="b27EzMFkws"></path><path d="M234.37 439.96C242.47 454.2 387.02 448.16 402.91 439.96C413.5 434.5 417.55 414.8 415.06 380.87L485.97 296.38C491.03 363.92 485.78 411.78 470.2 439.96C446.84 482.23 359.92 521.06 319.85 522.93C279.78 524.8 241.23 473.39 205.1 455.45C181.01 443.49 160.66 402.12 144.04 331.33L221.74 380.87C224.76 410.78 228.97 430.47 234.37 439.96Z" id="c3ZqspzyoO"></path><path d="M218.67 388.12L241.24 377.86L264.84 370.67L291.52 370.67L318.21 377.86L332.02 377.86C345.37 373.07 356.5 370.67 365.39 370.67C374.28 370.67 389.07 375.18 409.75 384.18L429.66 388.12L429.66 375.71L405.33 364.52L384.52 358.36L355.19 354.26L324.93 350.15L299.24 350.15L249.49 358.36L197.12 375.71L218.67 388.12Z" id="f826vhudkX"></path><path d="M352.78 335.27C352.78 342.04 338.02 347.53 319.85 347.53C301.68 347.53 286.92 342.04 286.92 335.27C286.92 328.5 301.68 323 319.85 323C338.02 323 352.78 328.5 352.78 335.27Z" id="exaq6lQZe"></path></defs><g><g><g><use xlink:href="#alNIBwahL" opacity="1" fill="#a15900" fill-opacity="1"></use><g><use xlink:href="#alNIBwahL" opacity="1" fill-opacity="0" stroke="#000000" stroke-width="1" stroke-opacity="0"></use></g></g><g><use xlink:href="#d2rNUMLsMD" opacity="1" fill="#a15900" fill-opacity="1"></use><g><use xlink:href="#d2rNUMLsMD" opacity="1" fill-opacity="0" stroke="#000000" stroke-width="1" stroke-opacity="0"></use></g></g><g><use xlink:href="#bKvBXyCQd" opacity="1" fill="#999999" fill-opacity="1"></use><g><use xlink:href="#bKvBXyCQd" opacity="1" fill-opacity="0" stroke="#000000" stroke-width="1" stroke-opacity="0"></use></g></g><g><use xlink:href="#i5xaxtfJZ" opacity="1" fill="#999999" fill-opacity="1"></use><g><use xlink:href="#i5xaxtfJZ" opacity="1" fill-opacity="0" stroke="#000000" stroke-width="1" stroke-opacity="0"></use></g></g><g><use xlink:href="#b149ZE0kdy" opacity="1" fill="#43a5f8" fill-opacity="1"></use><g><use xlink:href="#b149ZE0kdy" opacity="1" fill-opacity="0" stroke="#000000" stroke-width="1" stroke-opacity="0"></use></g></g><g><use xlink:href="#b7ecLxfVWi" opacity="1" fill="#0b79d8" fill-opacity="1"></use><g><use xlink:href="#b7ecLxfVWi" opacity="1" fill-opacity="0" stroke="#000000" stroke-width="1" stroke-opacity="0"></use></g></g><g><use xlink:href="#b1h4hHkjGd" opacity="1" fill="#ececec" fill-opacity="1"></use><g><use xlink:href="#b1h4hHkjGd" opacity="1" fill-opacity="0" stroke="#000000" stroke-width="1" stroke-opacity="0"></use></g></g><g><use xlink:href="#d1fsaPAOOW" opacity="1" fill="#ececec" fill-opacity="1"></use><g><use xlink:href="#d1fsaPAOOW" opacity="1" fill-opacity="0" stroke="#000000" stroke-width="1" stroke-opacity="0"></use></g></g><g><use xlink:href="#aCxlCDsv8" opacity="1" fill="#cccccc" fill-opacity="1"></use><g><use xlink:href="#aCxlCDsv8" opacity="1" fill-opacity="0" stroke="#000000" stroke-width="1" stroke-opacity="0"></use></g></g><g><use xlink:href="#gcqP92jX" opacity="1" fill="#a15900" fill-opacity="1"></use><g><use xlink:href="#gcqP92jX" opacity="1" fill-opacity="0" stroke="#000000" stroke-width="1" stroke-opacity="0"></use></g></g><g><use xlink:href="#bgnV6TynA" opacity="1" fill="#000000" fill-opacity="1"></use><g><use xlink:href="#bgnV6TynA" opacity="1" fill-opacity="0" stroke="#000000" stroke-width="1" stroke-opacity="0"></use></g></g><g><use xlink:href="#a2fYSq143n" opacity="1" fill="#000000" fill-opacity="1"></use><g><use xlink:href="#a2fYSq143n" opacity="1" fill-opacity="0" stroke="#000000" stroke-width="1" stroke-opacity="0"></use></g></g><g><use xlink:href="#ac8zqZSTv" opacity="1" fill="#2596f7" fill-opacity="1"></use><g><use xlink:href="#ac8zqZSTv" opacity="1" fill-opacity="0" stroke="#000000" stroke-width="1" stroke-opacity="0"></use></g></g><g><use xlink:href="#ahA1g6uY" opacity="1" fill="#0976d3" fill-opacity="1"></use><g><use xlink:href="#ahA1g6uY" opacity="1" fill-opacity="0" stroke="#000000" stroke-width="1" stroke-opacity="0"></use></g></g><g><use xlink:href="#abB4DwRc" opacity="1" fill="#cccccc" fill-opacity="1"></use><g><use xlink:href="#abB4DwRc" opacity="1" fill-opacity="0" stroke="#000000" stroke-width="1" stroke-opacity="0"></use></g></g><g><use xlink:href="#a1RSl6zKfu" opacity="1" fill="#2596f7" fill-opacity="1"></use><g><use xlink:href="#a1RSl6zKfu" opacity="1" fill-opacity="0" stroke="#000000" stroke-width="1" stroke-opacity="0"></use></g></g><g><use xlink:href="#c1rFUM1aVb" opacity="1" fill="#0976d3" fill-opacity="1"></use><g><use xlink:href="#c1rFUM1aVb" opacity="1" fill-opacity="0" stroke="#000000" stroke-width="1" stroke-opacity="0"></use></g></g><g><use xlink:href="#a1JvCeQBZx" opacity="1" fill="#000000" fill-opacity="1"></use><g><use xlink:href="#a1JvCeQBZx" opacity="1" fill-opacity="0" stroke="#000000" stroke-width="1" stroke-opacity="0"></use></g></g><g><use xlink:href="#b2sXtFye2D" opacity="1" fill="#000000" fill-opacity="1"></use><g><use xlink:href="#b2sXtFye2D" opacity="1" fill-opacity="0" stroke="#000000" stroke-width="1" stroke-opacity="0"></use></g></g><g><use xlink:href="#d4kwl9oB8" opacity="1" fill="#000000" fill-opacity="1"></use><g><use xlink:href="#d4kwl9oB8" opacity="1" fill-opacity="0" stroke="#000000" stroke-width="1" stroke-opacity="0"></use></g></g><g><use xlink:href="#d5Gc9MLOnV" opacity="1" fill="#844900" fill-opacity="1"></use><g><use xlink:href="#d5Gc9MLOnV" opacity="1" fill-opacity="0" stroke="#000000" stroke-width="1" stroke-opacity="0"></use></g></g><g><use xlink:href="#b27EzMFkws" opacity="1" fill="#000000" fill-opacity="1"></use><g><use xlink:href="#b27EzMFkws" opacity="1" fill-opacity="0" stroke="#000000" stroke-width="1" stroke-opacity="0"></use></g></g><g><use xlink:href="#c3ZqspzyoO" opacity="1" fill="#000000" fill-opacity="1"></use><g><use xlink:href="#c3ZqspzyoO" opacity="1" fill-opacity="0" stroke="#000000" stroke-width="1" stroke-opacity="1"></use></g></g><g><use xlink:href="#f826vhudkX" opacity="1" fill="#000000" fill-opacity="1"></use><g><use xlink:href="#f826vhudkX" opacity="1" fill-opacity="0" stroke="#000000" stroke-width="1" stroke-opacity="1"></use></g></g><g><use xlink:href="#exaq6lQZe" opacity="1" fill="#844900" fill-opacity="1"></use></g></g></g></svg>